<svg width="310" height="180" viewBox="0 0 310 180" fill="none" xmlns="http://www.w3.org/2000/svg">
<path d="M30.9748 1.78379H2.09904C1.94896 1.78088 1.80585 1.72014 1.6997 1.6143C1.59356 1.50846 1.53264 1.36576 1.52972 1.21611C1.52972 1.06556 1.58971 0.921166 1.69647 0.814706C1.80324 0.708246 1.94805 0.648438 2.09904 0.648438H30.9748C31.1258 0.648438 31.2706 0.708246 31.3773 0.814706C31.4841 0.921166 31.5441 1.06556 31.5441 1.21611C31.5441 1.36667 31.4841 1.51106 31.3773 1.61752C31.2706 1.72398 31.1258 1.78379 30.9748 1.78379Z" fill="#C6C6C6"/>
<path d="M16.5483 17.9625H2.09904C1.94805 17.9625 1.80324 17.9027 1.69647 17.7962C1.58971 17.6898 1.52972 17.5454 1.52972 17.3948C1.53264 17.2452 1.59356 17.1025 1.6997 16.9966C1.80585 16.8908 1.94896 16.8301 2.09904 16.8271H16.5483C16.6993 16.8271 16.8441 16.887 16.9509 16.9934C17.0576 17.0999 17.1176 17.2443 17.1176 17.3948C17.1176 17.5454 17.0576 17.6898 16.9509 17.7962C16.8441 17.9027 16.6993 17.9625 16.5483 17.9625Z" fill="#C6C6C6"/>
<path d="M307.708 148.767H287.543C287.392 148.767 287.247 148.707 287.14 148.601C287.034 148.494 286.974 148.35 286.974 148.2C286.974 148.049 287.034 147.905 287.14 147.798C287.247 147.692 287.392 147.632 287.543 147.632H307.731C307.882 147.632 308.027 147.692 308.133 147.798C308.24 147.905 308.3 148.049 308.3 148.2C308.3 148.276 308.285 148.352 308.255 148.422C308.225 148.493 308.181 148.556 308.126 148.609C308.07 148.662 308.005 148.704 307.933 148.731C307.861 148.758 307.785 148.77 307.708 148.767Z" fill="#C6C6C6"/>
<path d="M300.227 160.722H287.543C287.392 160.722 287.247 160.662 287.14 160.556C287.034 160.45 286.974 160.305 286.974 160.155C286.974 160.004 287.034 159.86 287.14 159.753C287.247 159.647 287.392 159.587 287.543 159.587H300.25C300.4 159.59 300.543 159.651 300.649 159.756C300.756 159.862 300.817 160.005 300.819 160.155C300.819 160.231 300.804 160.307 300.774 160.377C300.744 160.448 300.7 160.511 300.645 160.564C300.589 160.617 300.524 160.659 300.452 160.686C300.38 160.713 300.304 160.725 300.227 160.722Z" fill="#C6C6C6"/>
<path d="M306.068 179.751H290.856C289.821 179.748 288.83 179.336 288.098 178.607C287.366 177.877 286.954 176.888 286.951 175.856V173.37C286.954 172.338 287.366 171.349 288.098 170.619C288.83 169.89 289.821 169.479 290.856 169.476H306.068C307.103 169.479 308.095 169.89 308.827 170.619C309.559 171.349 309.971 172.338 309.974 173.37V175.822C309.977 176.336 309.878 176.845 309.683 177.321C309.489 177.797 309.202 178.23 308.839 178.595C308.476 178.959 308.045 179.249 307.569 179.448C307.094 179.646 306.584 179.749 306.068 179.751ZM290.856 170.668C290.122 170.668 289.419 170.958 288.9 171.476C288.381 171.993 288.089 172.695 288.089 173.427V175.879C288.089 176.611 288.381 177.312 288.9 177.83C289.419 178.347 290.122 178.638 290.856 178.638H306.068C306.802 178.638 307.506 178.347 308.025 177.83C308.544 177.312 308.835 176.611 308.835 175.879V173.37C308.835 172.638 308.544 171.936 308.025 171.419C307.506 170.902 306.802 170.611 306.068 170.611L290.856 170.668Z" fill="#C6C6C6"/>
<path d="M9.31788 46.5619C7.57258 46.5619 5.86647 46.0458 4.4153 45.079C2.96414 44.1121 1.83309 42.7379 1.1652 41.1301C0.497297 39.5223 0.322538 37.7531 0.66303 36.0463C1.00352 34.3394 1.84397 32.7716 3.07808 31.541C4.3122 30.3105 5.88455 29.4725 7.59632 29.1329C9.30809 28.7934 11.0824 28.9677 12.6948 29.6337C14.3073 30.2996 15.6855 31.4274 16.6551 32.8744C17.6247 34.3214 18.1423 36.0226 18.1423 37.7629C18.1393 40.0956 17.2086 42.3319 15.5543 43.9814C13.9001 45.6309 11.6573 46.5588 9.31788 46.5619ZM9.31788 30.0992C7.79778 30.0992 6.31181 30.5487 5.04789 31.3908C3.78398 32.2329 2.79887 33.4298 2.21715 34.8301C1.63543 36.2305 1.48323 37.7714 1.77979 39.258C2.07635 40.7446 2.80834 42.1101 3.88322 43.1819C4.95809 44.2537 6.32756 44.9835 7.81846 45.2792C9.30935 45.5749 10.8547 45.4232 12.2591 44.8431C13.6635 44.2631 14.8638 43.2808 15.7084 42.0205C16.5529 40.7603 17.0037 39.2786 17.0037 37.7629C17.0006 35.7313 16.1899 33.7837 14.7492 32.3472C13.3085 30.9106 11.3554 30.1022 9.31788 30.0992Z" fill="#C6C6C6"/>
<path d="M9.31781 40.6697C9.23705 40.659 9.15922 40.6324 9.08885 40.5915C9.01848 40.5506 8.95697 40.4961 8.9079 40.4313L5.59447 35.8899C5.55036 35.8295 5.51861 35.761 5.50103 35.6884C5.48345 35.6158 5.48039 35.5404 5.49202 35.4666C5.50365 35.3928 5.52975 35.322 5.56882 35.2583C5.60789 35.1945 5.65916 35.1391 5.71972 35.0951C5.78028 35.0511 5.84894 35.0195 5.92176 35.0019C5.99459 34.9844 6.07018 34.9814 6.14419 34.993C6.2182 35.0045 6.28919 35.0306 6.35312 35.0695C6.41705 35.1085 6.47266 35.1596 6.51677 35.22L9.44306 39.2051L21.0116 27.8515C21.0635 27.7987 21.1255 27.7567 21.1939 27.728C21.2624 27.6993 21.3359 27.6846 21.4101 27.6846C21.4843 27.6846 21.5578 27.6993 21.6262 27.728C21.6947 27.7567 21.7567 27.7987 21.8086 27.8515C21.862 27.9043 21.9043 27.9671 21.9332 28.0363C21.9621 28.1055 21.977 28.1797 21.977 28.2546C21.977 28.3295 21.9621 28.4037 21.9332 28.4729C21.9043 28.5421 21.862 28.6049 21.8086 28.6576L9.71633 40.5334C9.6626 40.5819 9.59957 40.6189 9.53107 40.6423C9.46257 40.6657 9.39002 40.6751 9.31781 40.6697Z" fill="#32323B"/>
</svg>
