<svg width="22" height="22" viewBox="0 0 22 22" fill="none" xmlns="http://www.w3.org/2000/svg">
<path d="M6.25208 15.9084V16.9598V15.9084ZM6.94273 15.6497L7.63337 16.4425L6.94273 15.6497ZM14.5481 6.98238L15.2947 7.72267L14.5481 6.98238ZM10.0046 10.0588L9.25797 10.7991L10.0046 10.0588ZM14.5597 15.6497L13.8691 16.4425L14.5597 15.6497ZM15.2504 15.9084V16.9598V15.9084ZM6.2077 6.67125L6.2077 7.72267L6.2077 6.67125ZM6.95432 6.98238L6.2077 7.72267L6.95432 6.98238ZM10.0606 12.9335L10.7512 13.7263L10.0606 12.9335ZM11.4419 12.9335L10.7512 13.7263L11.4419 12.9335ZM3.17873 9.05942L4.82343 7.41472L3.33651 5.92779L1.6918 7.57249L3.17873 9.05942ZM4.82343 7.41472L8.52083 3.71732L7.0339 2.23039L3.33651 5.92779L4.82343 7.41472ZM4.07997 7.72267L6.2077 7.72267L6.2077 5.61983L4.07997 5.61983L4.07997 7.72267ZM6.2077 7.72267L9.25797 10.7991L10.7512 9.31847L7.70095 6.24209L6.2077 7.72267ZM12.2445 10.7991L15.2947 7.72267L13.8015 6.24209L10.7512 9.31847L12.2445 10.7991ZM12.9816 3.71732L16.679 7.41472L18.1659 5.92779L14.4685 2.23039L12.9816 3.71732ZM16.679 7.41472L18.3237 9.05942L19.8106 7.57249L18.1659 5.92779L16.679 7.41472ZM15.2947 7.72267L17.4225 7.72267L17.4225 5.61983L15.2947 5.61983L15.2947 7.72267ZM8.52083 18.8623L4.82343 15.1649L3.3365 16.6518L7.0339 20.3492L8.52083 18.8623ZM4.82343 15.1649L3.17873 13.5202L1.6918 15.0071L3.3365 16.6518L4.82343 15.1649ZM4.07997 16.9598L6.25208 16.9598L6.25208 14.857H4.07997V16.9598ZM7.63337 16.4425L10.7512 13.7263L9.36993 12.1408L6.25208 14.857L7.63337 16.4425ZM10.7512 13.7263L13.8691 16.4425L15.2504 14.8569L12.1325 12.1408L10.7512 13.7263ZM18.3237 13.5202L16.679 15.1649L18.1659 16.6518L19.8106 15.0071L18.3237 13.5202ZM16.679 15.1649L12.9816 18.8623L14.4685 20.3492L18.1659 16.6518L16.679 15.1649ZM15.2504 16.9598L17.4225 16.9598V14.857H15.2504L15.2504 16.9598ZM6.25208 16.9598C6.75987 16.9598 7.2505 16.776 7.63337 16.4425L6.25208 14.857L6.25208 16.9598ZM15.2947 7.72267L15.2947 7.72267L15.2947 5.61983C14.7339 5.61983 14.1964 5.84385 13.8015 6.24209L15.2947 7.72267ZM9.25797 10.7991C10.0806 11.6287 11.4218 11.6287 12.2445 10.7991L10.7512 9.31847L10.7512 9.31847L9.25797 10.7991ZM1.6918 7.57249C-0.361216 9.62551 -0.361219 12.9541 1.6918 15.0071L3.17873 13.5202C1.94692 12.2884 1.94692 10.2912 3.17873 9.05942L1.6918 7.57249ZM7.0339 20.3492C9.08692 22.4022 12.4155 22.4022 14.4685 20.3492L12.9816 18.8623C11.7498 20.0941 9.75264 20.0941 8.52083 18.8623L7.0339 20.3492ZM13.8691 16.4425C14.2519 16.776 14.7426 16.9598 15.2504 16.9598L15.2504 14.857L15.2504 14.8569L13.8691 16.4425ZM18.3237 9.05942C19.5555 10.2912 19.5555 12.2884 18.3237 13.5202L19.8106 15.0071C21.8637 12.9541 21.8637 9.62551 19.8106 7.57249L18.3237 9.05942ZM6.2077 7.72267L6.2077 7.72267L7.70095 6.24209C7.30609 5.84385 6.76851 5.61983 6.2077 5.61983L6.2077 7.72267ZM10.7512 13.7263L12.1325 12.1408C11.3408 11.451 10.1616 11.451 9.36993 12.1408L10.7512 13.7263ZM8.52083 3.71732C9.75264 2.48551 11.7498 2.48551 12.9816 3.71732L14.4685 2.23039C12.4155 0.177373 9.08692 0.177374 7.0339 2.23039L8.52083 3.71732Z" fill="#32323B"/>
</svg>
