<svg width="27" height="28" viewBox="0 0 27 28" fill="none" xmlns="http://www.w3.org/2000/svg">
<path d="M13.4614 0.666504C6.10145 0.666504 0.128113 6.63984 0.128113 13.9998C0.128113 21.3598 6.10145 27.3332 13.4614 27.3332C20.8214 27.3332 26.7948 21.3598 26.7948 13.9998C26.7948 6.63984 20.8214 0.666504 13.4614 0.666504ZM6.88811 22.3732C7.46145 21.1732 10.9548 19.9998 13.4614 19.9998C15.9681 19.9998 19.4748 21.1732 20.0348 22.3732C18.2214 23.8132 15.9414 24.6665 13.4614 24.6665C10.9814 24.6665 8.70145 23.8132 6.88811 22.3732ZM21.9414 20.4398C20.0348 18.1198 15.4081 17.3332 13.4614 17.3332C11.5148 17.3332 6.88811 18.1198 4.98145 20.4398C3.62145 18.6532 2.79478 16.4265 2.79478 13.9998C2.79478 8.11984 7.58145 3.33317 13.4614 3.33317C19.3414 3.33317 24.1281 8.11984 24.1281 13.9998C24.1281 16.4265 23.3014 18.6532 21.9414 20.4398ZM13.4614 5.99984C10.8748 5.99984 8.79478 8.07984 8.79478 10.6665C8.79478 13.2532 10.8748 15.3332 13.4614 15.3332C16.0481 15.3332 18.1281 13.2532 18.1281 10.6665C18.1281 8.07984 16.0481 5.99984 13.4614 5.99984ZM13.4614 12.6665C12.3548 12.6665 11.4614 11.7732 11.4614 10.6665C11.4614 9.55984 12.3548 8.6665 13.4614 8.6665C14.5681 8.6665 15.4614 9.55984 15.4614 10.6665C15.4614 11.7732 14.5681 12.6665 13.4614 12.6665Z" fill="#32323B"/>
</svg>
